<?xml version="1.0" encoding="UTF-8" standalone="no"?>
<svg
   xmlns:dc="http://purl.org/dc/elements/1.1/"
   xmlns:cc="http://creativecommons.org/ns#"
   xmlns:rdf="http://www.w3.org/1999/02/22-rdf-syntax-ns#"
   xmlns:svg="http://www.w3.org/2000/svg"
   xmlns="http://www.w3.org/2000/svg"
   viewBox="0 0 746.46936 288"
   height="288"
   width="746.46936"
   xml:space="preserve"
   id="svg2"
   version="1.1"><metadata
     id="metadata8"><rdf:RDF><cc:Work
         rdf:about=""><dc:format>image/svg+xml</dc:format><dc:type
           rdf:resource="http://purl.org/dc/dcmitype/StillImage" /></cc:Work></rdf:RDF></metadata><defs
     id="defs6"><clipPath
       id="clipPath18"
       clipPathUnits="userSpaceOnUse"><path
         id="path16"
         d="M 0,216 H 559.852 V 0 H 0 Z" /></clipPath></defs><g
     transform="matrix(1.3333333,0,0,-1.3333333,0,288)"
     id="g10"><g
       id="g12"><g
         clip-path="url(#clipPath18)"
         id="g14"><g
           transform="translate(162.7144,121.3726)"
           id="g20"><path
             id="path22"
             style="fill:#db242a;fill-opacity:1;fill-rule:nonzero;stroke:none"
             d="m 0,0 h 17.338 c 4.036,0 7.319,-3.284 7.319,-7.319 0,-4.035 -3.283,-7.319 -7.319,-7.319 H 0 Z m 22.389,-45.315 h 17.097 l -14.365,18.653 c 7.779,3.142 13.252,10.829 13.077,19.759 -0.224,11.45 -9.948,20.448 -21.4,20.448 H 0 v 0.163 h -6.983 c -3.804,0 -6.888,-3.084 -6.888,-6.888 V -45.315 H 0 v 17.132 h 9.195 z" /></g><g
           transform="translate(117.0303,134.8506)"
           id="g24"><path
             id="path26"
             style="fill:#db242a;fill-opacity:1;fill-rule:nonzero;stroke:none"
             d="m 0,0 h -7.823 -4.1 c -2.3,0 -4.43,-1.214 -5.602,-3.193 l -32.929,-55.6 h 15.634 l 26.997,45.585 V -58.793 H 6.534 V -6.51 C 6.534,-2.915 3.62,0 0.024,0 Z" /></g><g
           transform="translate(503.6133,121.21)"
           id="g28"><path
             id="path30"
             style="fill:#db242a;fill-opacity:1;fill-rule:nonzero;stroke:none"
             d="M 0,0 V 13.87 H -16.275 -30.146 -46.421 V 0 h 16.275 v -31.282 h -16.275 v -13.87 H -30.146 -16.275 0 v 13.87 H -16.275 V 0 Z" /></g><g
           transform="translate(335.355,122.5195)"
           id="g32"><path
             id="path34"
             style="fill:#db242a;fill-opacity:1;fill-rule:nonzero;stroke:none"
             d="m 0,0 c -9.346,0 -16.951,-7.604 -16.951,-16.95 0,-9.347 7.605,-16.95 16.951,-16.95 9.346,0 16.95,7.603 16.95,16.95 C 16.95,-7.604 9.346,0 0,0 m 0,-48.429 c -17.357,0 -31.479,14.121 -31.479,31.479 0,17.357 14.122,31.478 31.479,31.478 17.357,0 31.479,-14.121 31.479,-31.478 0,-17.358 -14.122,-31.479 -31.479,-31.479" /></g><g
           transform="translate(276.894,135.0801)"
           id="g36"><path
             id="path38"
             style="fill:#db242a;fill-opacity:1;fill-rule:nonzero;stroke:none"
             d="m 0,0 c -1.786,0 -3.486,-0.767 -4.667,-2.105 l -2.977,-3.372 -15.777,-17.871 -16.538,18.171 -2.823,3.101 C -43.985,-0.753 -45.69,0 -47.479,0 c -3.507,0 -6.35,-2.843 -6.35,-6.351 v -3.711 -48.96 h 13.87 v 33.721 l 16.691,-18.339 15.624,17.696 v -33.078 h 13.87 v 48.789 4.007 C 6.226,-2.787 3.438,0 0,0" /></g><g
           transform="translate(398.8042,121.3726)"
           id="g40"><path
             id="path42"
             style="fill:#db242a;fill-opacity:1;fill-rule:nonzero;stroke:none"
             d="m 0,0 h 17.338 c 4.036,0 7.319,-3.284 7.319,-7.319 0,-4.035 -3.283,-7.319 -7.319,-7.319 H 0 Z m 22.388,-45.315 h 17.098 l -14.365,18.653 c 7.779,3.142 13.252,10.829 13.077,19.759 -0.224,11.45 -9.948,20.448 -21.4,20.448 H 0 v 0.163 h -6.927 c -3.835,0 -6.944,-3.109 -6.944,-6.944 V -45.315 H 0 v 17.132 h 9.195 z" /></g></g></g></g></svg>